<svg width="2357" height="906" viewBox="0 0 2357 906" fill="none" xmlns="http://www.w3.org/2000/svg">
<path d="M2004.26 304.068C1966.9 269.925 1969.22 209.252 1995.61 169.308C2023.17 127.592 2025.13 105.178 2025.13 105.178L2025.25 104.242L2025.38 105.178C2025.38 105.178 2027.34 127.592 2054.9 169.308C2081.29 209.252 2083.61 269.925 2046.24 304.068C2131.7 257.06 2130.81 158.596 2079.13 95.4466C2029.04 34.2522 2025.47 1.37097 2025.47 1.37097L2025.25 0L2025.03 1.37097C2025.03 1.37097 2021.46 34.2522 1971.38 95.4466C1919.7 158.595 1918.81 257.06 2004.26 304.068Z" fill="url(#paint0_linear_202_103)"/>
<path d="M2042.52 197.038C2026.47 165.509 2025.33 148.566 2025.33 148.566L2025.25 147.859L2025.18 148.566C2025.18 148.566 2024.04 165.509 2007.99 197.038C1990.19 232.007 1991.19 287.999 2025.13 309.503C2025.13 309.556 2025.13 309.612 2025.13 309.666C2025.17 309.64 2025.21 309.611 2025.26 309.585C2025.3 309.611 2025.34 309.64 2025.38 309.666C2025.38 309.612 2025.38 309.556 2025.38 309.503C2059.32 287.999 2060.32 232.007 2042.52 197.038Z" fill="url(#paint1_linear_202_103)"/>
<path d="M2153.53 116.873C2194.09 103.253 2202.6 88.8979 2202.6 88.8979C2202.6 88.8979 2201.95 105.207 2173.33 116.904C2132.93 133.414 2132.84 150.323 2129.04 171.826C2124.47 197.71 2138.48 229.323 2092.08 282.393C2161.55 282.716 2212.14 211.223 2209.02 142.456C2206.54 87.9521 2216.39 62.6484 2216.39 62.6484C2216.39 62.6484 2193.72 86.3529 2172.01 92.6417C2099.43 113.667 2123.16 169.037 2123.16 169.037C2123.16 169.037 2113.75 130.231 2153.53 116.873Z" fill="url(#paint2_linear_202_103)"/>
<path d="M2213.59 216.151C2198.51 230.703 2185.67 281.436 2120.47 287.783C2070.13 292.684 2050.4 312.889 2050.4 312.889C2127.78 302.274 2121.61 327.732 2186.33 333.432C2252.41 339.253 2280.86 286.511 2297.04 258.909C2313.22 231.307 2357 225.596 2357 225.596C2357 225.596 2284.65 147.608 2213.59 216.151Z" fill="url(#paint3_linear_202_103)"/>
<path d="M2134.05 329.025C2120.53 324.045 2109.55 320.536 2087.82 318.045C2078.6 316.988 2045.02 317.336 2045.02 317.336C2045.02 317.336 2066.17 359.927 2132.46 372.321C2198.76 384.716 2254.28 341.572 2254.28 341.572C2254.28 341.572 2215.36 358.976 2134.05 329.025Z" fill="url(#paint4_linear_202_103)"/>
<path d="M1841.49 142.457C1838.37 211.224 1888.96 282.717 1958.43 282.395C1912.03 229.324 1926.04 197.711 1921.47 171.827C1917.67 150.326 1917.57 133.415 1877.18 116.906C1848.56 105.209 1847.91 88.8992 1847.91 88.8992C1847.91 88.8992 1856.42 103.255 1896.98 116.874C1936.76 130.232 1927.35 169.037 1927.35 169.037C1927.35 169.037 1951.08 113.668 1878.5 92.6416C1856.79 86.3516 1834.12 62.6484 1834.12 62.6484C1834.12 62.6484 1843.96 87.9534 1841.49 142.457Z" fill="url(#paint5_linear_202_103)"/>
<path d="M1753.47 258.909C1769.65 286.511 1798.09 339.252 1864.18 333.432C1928.9 327.732 1922.73 302.274 2000.11 312.888C2000.11 312.888 1980.38 292.684 1930.04 287.783C1864.83 281.435 1852 230.703 1836.92 216.15C1765.86 147.608 1693.51 225.597 1693.51 225.597C1693.51 225.597 1737.29 231.307 1753.47 258.909Z" fill="url(#paint6_linear_202_103)"/>
<path d="M2005.49 317.336C2005.49 317.336 1971.91 316.988 1962.69 318.045C1940.96 320.536 1929.98 324.044 1916.46 329.025C1835.15 358.974 1796.23 341.572 1796.23 341.572C1796.23 341.572 1851.75 384.716 1918.05 372.321C1984.35 359.925 2005.49 317.336 2005.49 317.336Z" fill="url(#paint7_linear_202_103)"/>
<path d="M1675.7 812.008C1682.3 816.942 1690.98 818.133 1699.8 815.096C1708.29 812.177 1714.78 805.896 1715.59 799.951C1700.81 788.834 1688.86 775.838 1679.76 764.07C1677.41 765.843 1665.75 775.216 1664.26 787.719C1663.49 794.174 1665.58 800.561 1670.44 806.738C1672.14 808.501 1673.89 810.261 1675.7 812.008Z" fill="url(#paint8_linear_202_103)"/>
<path d="M1675.49 758.344C1662.91 740.982 1654.99 725.162 1651.35 717.168C1644.04 730.833 1637.97 743.986 1632.93 756.51C1634.5 758.085 1648.33 770.744 1675.49 758.344Z" fill="url(#paint9_linear_202_103)"/>
<path d="M1692.52 736.545C1678.44 717.944 1669.2 700.566 1665.38 692.852C1661.41 699.25 1657.72 705.558 1654.29 711.767C1659.78 724.473 1694.92 799.814 1762.63 818.136C1765.57 812.003 1769.14 805.655 1773.49 799.36C1737.25 787.886 1709.54 759.039 1692.52 736.545Z" fill="url(#paint10_linear_202_103)"/>
<path d="M1670.88 765.43C1664.24 767.728 1658.4 768.611 1653.35 768.611C1647.03 768.611 1641.97 767.229 1638.14 765.552C1642.85 772.956 1650.11 783.495 1659.6 794.726C1659.19 792.207 1659.13 789.661 1659.44 787.093C1660.55 777.785 1666.21 770.226 1670.88 765.43Z" fill="url(#paint11_linear_202_103)"/>
<path d="M1652.33 812.509C1654.74 809.776 1657.39 805.163 1656.41 798.709L1656.49 798.697C1643.8 783.781 1634.9 769.84 1630.56 762.547C1620.76 788.174 1615.3 810.988 1612.36 829.916C1617.4 825.291 1625.21 819.887 1634.12 820.052C1641.22 820.222 1648.05 817.388 1652.33 812.509Z" fill="url(#paint12_linear_202_103)"/>
<path d="M1958.21 464.352C1968.54 459.457 1981.35 439.415 1978.79 410.797C1969.02 432.897 1956.83 450.251 1943.79 463.995C1947.48 465.316 1953.33 466.663 1958.21 464.352Z" fill="url(#paint13_linear_202_103)"/>
<path d="M2063.86 433.391C2076.23 415.18 2089.03 399.348 2101.59 389.914C2081.82 395.035 2066.28 405.421 2061.8 417.277C2059.29 423.934 2061.65 429.826 2063.86 433.391Z" fill="url(#paint14_linear_202_103)"/>
<path d="M2128.51 540.366C2125.88 552.928 2130.26 560.294 2133.51 563.828C2133.73 562.857 2133.94 561.896 2134.15 560.941C2137.83 544.311 2141.07 529.633 2153.29 508.668C2143.96 516.081 2131.05 528.231 2128.51 540.366Z" fill="url(#paint15_linear_202_103)"/>
<path d="M2123.75 539.375C2124.48 535.89 2125.93 532.448 2127.83 529.122C2112.04 537.451 2096.98 573.406 2084.59 603.014C2082.77 607.376 2080.97 611.667 2079.19 615.823C2078.39 634.397 2084.5 640.638 2084.56 640.699C2084.56 640.699 2075.56 638.791 2074.45 624.406C2065.39 637.534 2048.69 648.608 2024.57 657.392C2024.19 657.532 2023.81 657.665 2023.43 657.8C2015.4 667.819 2019.43 678.378 2019.62 678.836C2019.62 678.836 2011.2 670.644 2016.17 660.249C2001.58 664.89 1989.05 667.248 1984.94 667.959C1975.8 677.272 1964.58 680.93 1964.58 680.93C1965.13 680.436 2018.85 631.357 2023.94 606.204C2028.28 584.764 2018.32 575.897 2015.71 573.983C2008.17 586.837 1997.02 601.465 1984.42 615.689C1981.55 631.077 1987.88 637.532 1988.16 637.804C1988.16 637.804 1978.38 635.096 1978.82 621.869C1962.44 642.82 1940.42 651.972 1940.42 651.972C1954.97 639.826 1968.33 626.663 1979.82 613.778C1979.84 613.664 1980.09 613.482 1980.09 613.482C2002.94 587.798 2018.3 563.26 2020.61 550.147C2023.8 531.954 2016.75 526.72 2014.07 525.414C2010.65 531.001 2007.4 536.063 2004.4 540.339C1996.17 552.092 1984.97 563.169 1973.73 572.714C1968.35 582.937 1970.92 600.157 1970.95 600.335C1970.95 600.335 1964.34 589.075 1966.61 578.566C1960.81 583.172 1955.17 587.321 1950.1 590.869C1931.84 603.632 1914.27 607.527 1914.27 607.527C1914.68 607.306 1943.51 591.789 1969.93 569.553C1970 569.446 1970.05 569.335 1970.12 569.23L1970.24 569.3C1981.58 559.724 1992.46 548.914 2000.42 537.548C2008.01 526.72 2017.29 510.648 2027.12 493.634C2037.55 475.56 2049.02 455.699 2060.94 437.74C2057.99 433.676 2053.56 425.349 2057.26 415.555C2058.9 411.199 2061.84 407.033 2065.78 403.199C2048.38 403.96 2021.21 429.022 2002.55 462.428C1999.13 468.539 1995.59 474.418 1991.94 480.111L1992.07 480.158C1985.83 496.373 1990.74 512.259 1990.79 512.417C1990.79 512.417 1982.98 503.711 1984.39 491.383C1970.25 511.499 1954.59 528.676 1937.52 542.7C1931.49 555.276 1935.02 571.788 1935.06 571.955C1935.06 571.955 1927.58 560.351 1930.46 548.238C1929.14 549.24 1927.81 550.245 1926.47 551.21C1894.84 573.939 1859.36 576.722 1856.91 576.891C1829.13 597.136 1813.77 615.622 1813.77 615.622C1813.84 615.5 1830.04 582.187 1864.46 566.353C1876.14 560.982 1890.2 551.589 1904.85 541.563C1891.58 540.749 1881.71 527.061 1881.71 527.061C1881.88 527.195 1899.07 540.329 1912.92 535.817L1912.94 535.896C1937.4 518.387 1961.06 497.813 1970.65 480.177C1979.82 463.298 1980.03 452.925 1978.06 447.733C1973.7 457.719 1967.14 465.506 1960.29 468.752C1957.64 470.008 1954.85 470.472 1952.17 470.472C1947.24 470.472 1942.7 468.895 1940.09 467.775C1911.28 496.334 1879.13 508.184 1860.19 515.164C1824.32 528.377 1759.15 574.716 1712.15 629.389C1694.87 649.491 1680.46 669.118 1668.43 688.001C1673.64 698.978 1712.17 775.89 1776.5 795.193C1787.15 781.01 1801.91 767.42 1822.38 757.593C1855.2 741.839 1896.96 732.166 1937.35 722.811C2007.36 706.593 2079.76 689.823 2104.99 641.052C2122.19 607.794 2128.2 586.874 2132.27 569.33C2128.47 566.199 2120.05 557.03 2123.75 539.375Z" fill="url(#paint16_linear_202_103)"/>
<path d="M1721.81 834.487C1726.72 843.527 1736.36 849.572 1750.47 852.476C1750.62 852.498 1750.78 852.517 1750.94 852.538C1752.21 846.687 1753.94 840.249 1756.3 833.489C1757.5 830.018 1758.92 826.366 1760.57 822.606C1745.56 818.435 1732.18 811.59 1720.45 803.445C1718.98 807.959 1715.21 822.301 1721.81 834.487Z" fill="url(#paint17_linear_202_103)"/>
<path d="M1672.05 815.335C1670.73 814.281 1669.49 813.103 1668.33 811.794C1668.03 811.455 1667.75 811.113 1667.46 810.771C1665.28 808.537 1663.21 806.326 1661.26 804.164C1660.71 808.389 1658.94 812.366 1655.99 815.725C1650.76 821.667 1642.57 825.078 1634.01 824.92C1633.89 824.917 1633.77 824.915 1633.65 824.915C1623.21 824.915 1613.98 834.858 1611.2 838.163C1607.31 868.969 1609.35 892.539 1611.42 905.837C1614.23 897.388 1620.14 886.087 1632.34 880.601C1649.82 872.734 1652.76 847.649 1651.74 834.069L1651.25 827.535L1655.88 832.168C1664.62 840.907 1665.48 854.563 1665.37 860.763C1667.75 859.94 1671.86 857.883 1677.67 852.748C1687.94 843.672 1686.95 831.475 1686.41 827.983C1681.25 823.868 1676.45 819.594 1672.05 815.335Z" fill="url(#paint18_linear_202_103)"/>
<path d="M1989.19 472.142C1991.15 468.615 1993.04 465.049 1994.87 461.457C1996.28 458.542 1997.62 455.564 1998.86 452.518C2000.32 448.936 2001.77 446.108 2003.21 443.949C2003.21 443.935 2003.22 443.92 2003.22 443.906C2033.26 375.664 2030.75 321.399 2030.62 319.121L2021.98 319.582C2022.96 338.277 2018.61 387.679 1995.13 440.829C1980.45 474.044 1960.36 504.715 1935.32 532.258C1953.26 518.223 1974.15 498.11 1989.19 472.142Z" fill="url(#paint19_linear_202_103)"/>
<path d="M70.7031 126.719C70.4427 141.302 70.1823 155.43 69.9219 169.102C69.7917 174.961 69.6615 180.951 69.5312 187.07C69.5312 193.19 69.4661 199.245 69.3359 205.234C69.3359 211.094 69.2708 216.758 69.1406 222.227C69.1406 227.565 69.1406 232.318 69.1406 236.484C69.1406 245.208 69.2057 255.755 69.3359 268.125C69.4661 280.495 69.5964 293.19 69.7266 306.211C69.987 319.232 70.3125 331.732 70.7031 343.711C71.0938 355.69 71.5495 365.651 72.0703 373.594C73.8932 373.854 76.3021 374.18 79.2969 374.57C82.4219 374.831 85.6771 375.091 89.0625 375.352C92.4479 375.482 95.7682 375.612 99.0234 375.742C102.279 375.872 105.013 375.938 107.227 375.938C116.341 375.938 125.651 375.352 135.156 374.18C144.792 372.878 154.036 370.534 162.891 367.148C171.875 363.763 180.273 359.141 188.086 353.281C196.029 347.292 202.93 339.609 208.789 330.234C214.779 320.859 219.466 309.596 222.852 296.445C226.237 283.164 227.93 267.539 227.93 249.57C227.93 229.648 225.521 211.94 220.703 196.445C215.885 180.82 208.789 167.669 199.414 156.992C190.169 146.315 178.646 138.242 164.844 132.773C151.172 127.174 135.417 124.375 117.578 124.375C114.062 124.375 110.091 124.505 105.664 124.766C101.237 124.896 96.8099 125.091 92.3828 125.352C88.0859 125.482 83.9844 125.742 80.0781 126.133C76.3021 126.393 73.1771 126.589 70.7031 126.719ZM27.9297 109.141C30.9245 109.271 33.724 109.401 36.3281 109.531C38.5417 109.661 40.8203 109.792 43.1641 109.922C45.5078 109.922 47.3958 109.922 48.8281 109.922C51.3021 109.922 55.4036 109.792 61.1328 109.531C66.9922 109.271 73.6328 109.01 81.0547 108.75C88.4766 108.49 96.1589 108.229 104.102 107.969C112.174 107.708 119.727 107.578 126.758 107.578C145.638 107.578 163.607 109.922 180.664 114.609C197.721 119.297 212.695 126.979 225.586 137.656C238.477 148.333 248.698 162.331 256.25 179.648C263.802 196.966 267.578 218.255 267.578 243.516C267.578 261.615 265.56 277.891 261.523 292.344C257.617 306.797 252.083 319.557 244.922 330.625C237.76 341.693 229.167 351.198 219.141 359.141C209.245 366.953 198.242 373.398 186.133 378.477C174.154 383.555 161.328 387.266 147.656 389.609C133.984 391.953 119.857 393.125 105.273 393.125C100.065 393.125 93.75 392.93 86.3281 392.539C79.0365 392.279 71.6797 391.953 64.2578 391.562C56.8359 391.172 49.8047 390.781 43.1641 390.391C36.6536 390.13 31.5755 390 27.9297 390V389.219C28.7109 386.484 29.4271 383.099 30.0781 379.062C30.8594 375.026 31.5104 370.013 32.0312 364.023C32.5521 358.034 32.9427 350.938 33.2031 342.734C33.4635 334.401 33.5938 324.701 33.5938 313.633V186.484C33.5938 175.417 33.4635 165.716 33.2031 157.383C32.9427 148.919 32.5521 141.693 32.0312 135.703C31.5104 129.583 30.8594 124.44 30.0781 120.273C29.4271 116.107 28.7109 112.656 27.9297 109.922V109.141ZM403.125 393.516C388.672 393.516 375.13 391.237 362.5 386.68C349.87 382.122 338.867 375.482 329.492 366.758C320.117 357.904 312.695 347.031 307.227 334.141C301.888 321.12 299.219 306.276 299.219 289.609C299.219 274.896 301.693 261.289 306.641 248.789C311.589 236.159 318.424 225.221 327.148 215.977C335.872 206.732 346.029 199.505 357.617 194.297C369.336 189.089 381.966 186.484 395.508 186.484C408.919 186.484 421.354 188.828 432.812 193.516C444.271 198.073 454.167 204.779 462.5 213.633C470.964 222.357 477.604 233.229 482.422 246.25C487.37 259.141 490.039 273.854 490.43 290.391C475.716 290.13 461.003 289.935 446.289 289.805C431.576 289.674 416.276 289.609 400.391 289.609C389.062 289.609 377.995 289.674 367.188 289.805C356.51 289.935 346.875 290.13 338.281 290.391C339.062 303.932 341.146 316.172 344.531 327.109C348.047 338.047 352.799 347.422 358.789 355.234C364.909 362.917 372.266 368.841 380.859 373.008C389.583 377.174 399.414 379.258 410.352 379.258C417.904 379.258 425 378.411 431.641 376.719C438.411 374.896 444.531 372.422 450 369.297C455.469 366.172 460.352 362.526 464.648 358.359C468.945 354.062 472.591 349.44 475.586 344.492L477.93 345.664L463.477 380.43C456.445 384.076 448.047 387.201 438.281 389.805C428.516 392.279 416.797 393.516 403.125 393.516ZM377.148 274.375C390.169 274.375 403.19 274.375 416.211 274.375C429.362 274.245 441.276 273.984 451.953 273.594C450.781 262.266 448.568 252.109 445.312 243.125C442.057 234.141 437.891 226.523 432.812 220.273C427.734 214.023 421.745 209.206 414.844 205.82C407.943 202.435 400.326 200.742 391.992 200.742C384.44 200.742 377.474 202.435 371.094 205.82C364.844 209.076 359.375 213.828 354.688 220.078C350 226.328 346.224 234.01 343.359 243.125C340.495 252.109 338.802 262.396 338.281 273.984C344.141 274.245 350.326 274.375 356.836 274.375C363.346 274.375 370.117 274.375 377.148 274.375ZM619.922 393.516C605.469 393.516 591.927 391.237 579.297 386.68C566.667 382.122 555.664 375.482 546.289 366.758C536.914 357.904 529.492 347.031 524.023 334.141C518.685 321.12 516.016 306.276 516.016 289.609C516.016 274.896 518.49 261.289 523.438 248.789C528.385 236.159 535.221 225.221 543.945 215.977C552.669 206.732 562.826 199.505 574.414 194.297C586.133 189.089 598.763 186.484 612.305 186.484C625.716 186.484 638.151 188.828 649.609 193.516C661.068 198.073 670.964 204.779 679.297 213.633C687.76 222.357 694.401 233.229 699.219 246.25C704.167 259.141 706.836 273.854 707.227 290.391C692.513 290.13 677.799 289.935 663.086 289.805C648.372 289.674 633.073 289.609 617.188 289.609C605.859 289.609 594.792 289.674 583.984 289.805C573.307 289.935 563.672 290.13 555.078 290.391C555.859 303.932 557.943 316.172 561.328 327.109C564.844 338.047 569.596 347.422 575.586 355.234C581.706 362.917 589.062 368.841 597.656 373.008C606.38 377.174 616.211 379.258 627.148 379.258C634.701 379.258 641.797 378.411 648.438 376.719C655.208 374.896 661.328 372.422 666.797 369.297C672.266 366.172 677.148 362.526 681.445 358.359C685.742 354.062 689.388 349.44 692.383 344.492L694.727 345.664L680.273 380.43C673.242 384.076 664.844 387.201 655.078 389.805C645.312 392.279 633.594 393.516 619.922 393.516ZM593.945 274.375C606.966 274.375 619.987 274.375 633.008 274.375C646.159 274.245 658.073 273.984 668.75 273.594C667.578 262.266 665.365 252.109 662.109 243.125C658.854 234.141 654.688 226.523 649.609 220.273C644.531 214.023 638.542 209.206 631.641 205.82C624.74 202.435 617.122 200.742 608.789 200.742C601.237 200.742 594.271 202.435 587.891 205.82C581.641 209.076 576.172 213.828 571.484 220.078C566.797 226.328 563.021 234.01 560.156 243.125C557.292 252.109 555.599 262.396 555.078 273.984C560.938 274.245 567.122 274.375 573.633 274.375C580.143 274.375 586.914 274.375 593.945 274.375ZM940.625 127.109C925.26 127.109 911.393 127.826 899.023 129.258C886.654 130.56 875.977 131.992 866.992 133.555C856.576 135.508 847.266 137.656 839.062 140L844.727 108.359C846.289 108.49 848.633 108.62 851.758 108.75C854.883 108.88 858.333 109.01 862.109 109.141C866.016 109.271 870.052 109.401 874.219 109.531C878.516 109.531 882.552 109.596 886.328 109.727C890.104 109.727 893.424 109.792 896.289 109.922C899.284 109.922 901.432 109.922 902.734 109.922H1014.26C1015.56 109.922 1017.64 109.922 1020.51 109.922C1023.5 109.792 1026.89 109.727 1030.66 109.727C1034.44 109.596 1038.41 109.531 1042.58 109.531C1046.88 109.401 1050.91 109.271 1054.69 109.141C1058.59 109.01 1062.11 108.88 1065.23 108.75C1068.36 108.62 1070.7 108.49 1072.27 108.359L1077.93 140C1069.6 137.656 1060.22 135.508 1049.8 133.555C1040.82 131.992 1030.14 130.56 1017.77 129.258C1005.4 127.826 991.536 127.109 976.172 127.109V313.633C976.172 324.701 976.302 334.401 976.562 342.734C976.953 350.938 977.344 358.034 977.734 364.023C978.255 370.013 978.841 375.026 979.492 379.062C980.273 383.099 981.055 386.484 981.836 389.219V390H935.156V389.219C935.938 386.484 936.654 383.099 937.305 379.062C937.956 375.026 938.542 370.013 939.062 364.023C939.583 358.034 939.974 350.938 940.234 342.734C940.495 334.401 940.625 324.701 940.625 313.633V127.109ZM1242.58 258.359C1242.58 241.172 1239.13 228.542 1232.23 220.469C1225.33 212.396 1216.08 208.359 1204.49 208.359C1200.2 208.359 1195.38 209.271 1190.04 211.094C1184.83 212.786 1179.43 215.13 1173.83 218.125C1168.36 221.12 1162.89 224.635 1157.42 228.672C1151.95 232.578 1146.88 236.745 1142.19 241.172V313.633C1142.19 324.701 1142.32 334.401 1142.58 342.734C1142.84 350.938 1143.23 358.034 1143.75 364.023C1144.27 370.013 1144.86 375.026 1145.51 379.062C1146.16 383.099 1146.88 386.484 1147.66 389.219V390H1102.54V389.219C1103.32 386.484 1104.04 383.099 1104.69 379.062C1105.47 375.026 1106.05 370.013 1106.45 364.023C1106.97 358.034 1107.36 350.938 1107.62 342.734C1108.01 334.401 1108.2 324.701 1108.2 313.633V174.375C1108.2 163.307 1108.01 153.672 1107.62 145.469C1107.36 137.135 1106.97 129.974 1106.45 123.984C1106.05 117.995 1105.47 112.982 1104.69 108.945C1104.04 104.909 1103.32 101.523 1102.54 98.7891V98.0078H1147.66V98.7891C1146.88 101.523 1146.16 104.909 1145.51 108.945C1144.86 112.982 1144.27 117.995 1143.75 123.984C1143.23 129.974 1142.84 137.135 1142.58 145.469C1142.32 153.672 1142.19 163.307 1142.19 174.375V224.375C1147.4 219.688 1153.12 215.065 1159.38 210.508C1165.76 205.951 1172.33 201.849 1179.1 198.203C1185.87 194.557 1192.77 191.628 1199.8 189.414C1206.84 187.201 1213.74 186.094 1220.51 186.094C1230.66 186.094 1239.26 187.852 1246.29 191.367C1253.45 194.883 1259.24 199.505 1263.67 205.234C1268.23 210.964 1271.48 217.539 1273.44 224.961C1275.52 232.253 1276.56 239.674 1276.56 247.227V313.633C1276.56 324.701 1276.69 334.401 1276.95 342.734C1277.21 350.938 1277.6 358.034 1278.12 364.023C1278.65 370.013 1279.23 375.026 1279.88 379.062C1280.53 383.099 1281.25 386.484 1282.03 389.219V390H1236.91V389.219C1237.7 386.484 1238.41 383.099 1239.06 379.062C1239.84 375.026 1240.43 370.013 1240.82 364.023C1241.34 358.034 1241.73 350.938 1241.99 342.734C1242.38 334.401 1242.58 324.701 1242.58 313.633V258.359ZM1319.92 332.383C1319.92 322.096 1322.01 313.177 1326.17 305.625C1330.47 298.073 1336.13 291.628 1343.16 286.289C1350.2 280.951 1358.2 276.654 1367.19 273.398C1376.17 270.013 1385.48 267.409 1395.12 265.586C1404.75 263.633 1414.26 262.331 1423.63 261.68C1433.01 260.898 1441.6 260.443 1449.41 260.312V250.352C1449.41 241.758 1448.31 234.336 1446.09 228.086C1443.88 221.836 1440.76 216.693 1436.72 212.656C1432.68 208.49 1427.8 205.43 1422.07 203.477C1416.47 201.393 1410.29 200.352 1403.52 200.352C1398.83 200.352 1394.21 200.742 1389.65 201.523C1385.09 202.305 1380.34 203.607 1375.39 205.43C1370.57 207.253 1365.43 209.727 1359.96 212.852C1354.62 215.977 1348.83 219.948 1342.58 224.766L1340.62 223.594L1353.91 196.055C1358.2 194.102 1362.43 192.539 1366.6 191.367C1370.77 190.065 1375 189.023 1379.3 188.242C1383.59 187.461 1387.96 186.94 1392.38 186.68C1396.94 186.289 1401.69 186.094 1406.64 186.094C1420.31 186.094 1431.97 187.786 1441.6 191.172C1451.37 194.427 1459.31 198.984 1465.43 204.844C1471.68 210.573 1476.24 217.344 1479.1 225.156C1481.97 232.839 1483.4 241.107 1483.4 249.961V313.633C1483.4 324.701 1483.53 334.401 1483.79 342.734C1484.18 350.938 1484.57 358.034 1484.96 364.023C1485.48 370.013 1486.07 375.026 1486.72 379.062C1487.5 383.099 1488.28 386.484 1489.06 389.219V390H1445.9V389.219C1446.55 387.135 1447.01 384.792 1447.27 382.188C1447.66 379.583 1447.98 376.458 1448.24 372.812C1445.51 375.156 1442.25 377.565 1438.48 380.039C1434.83 382.513 1430.6 384.792 1425.78 386.875C1421.09 388.828 1415.82 390.391 1409.96 391.562C1404.23 392.865 1397.92 393.516 1391.02 393.516C1368.36 393.516 1350.85 388.242 1338.48 377.695C1326.11 367.018 1319.92 351.914 1319.92 332.383ZM1449.41 275.547C1437.57 275.677 1426.17 276.393 1415.23 277.695C1404.3 278.867 1394.6 281.406 1386.13 285.312C1377.8 289.219 1371.09 294.818 1366.02 302.109C1361.07 309.271 1358.59 318.841 1358.59 330.82C1358.59 346.185 1362.43 357.904 1370.12 365.977C1377.8 374.049 1388.41 378.086 1401.95 378.086C1408.2 378.086 1413.87 377.24 1418.95 375.547C1424.15 373.724 1428.71 371.51 1432.62 368.906C1436.65 366.172 1440.04 363.242 1442.77 360.117C1445.51 356.862 1447.59 353.737 1449.02 350.742C1449.28 345.794 1449.41 340.326 1449.41 334.336C1449.41 328.216 1449.41 321.315 1449.41 313.633V275.547ZM1543.75 266.367C1543.75 255.299 1543.55 245.664 1543.16 237.461C1542.9 229.128 1542.51 221.966 1541.99 215.977C1541.6 209.987 1541.02 204.974 1540.23 200.938C1539.58 196.901 1538.87 193.516 1538.09 190.781V190H1583.2V190.781C1582.42 193.516 1581.71 196.901 1581.05 200.938C1580.4 204.974 1579.82 209.987 1579.3 215.977C1578.78 221.966 1578.39 229.128 1578.12 237.461C1577.86 245.664 1577.73 255.299 1577.73 266.367V313.633C1577.73 324.701 1577.86 334.401 1578.12 342.734C1578.39 350.938 1578.78 358.034 1579.3 364.023C1579.82 370.013 1580.4 375.026 1581.05 379.062C1581.71 383.099 1582.42 386.484 1583.2 389.219V390H1538.09V389.219C1538.87 386.484 1539.58 383.099 1540.23 379.062C1541.02 375.026 1541.6 370.013 1541.99 364.023C1542.51 358.034 1542.9 350.938 1543.16 342.734C1543.55 334.401 1543.75 324.701 1543.75 313.633V266.367ZM1539.65 130.82C1539.65 127.956 1540.17 125.286 1541.21 122.812C1542.38 120.208 1543.88 117.995 1545.7 116.172C1547.53 114.219 1549.67 112.721 1552.15 111.68C1554.75 110.508 1557.55 109.922 1560.55 109.922C1563.54 109.922 1566.28 110.508 1568.75 111.68C1571.35 112.721 1573.57 114.219 1575.39 116.172C1577.34 117.995 1578.84 120.208 1579.88 122.812C1581.05 125.286 1581.64 127.956 1581.64 130.82C1581.64 136.81 1579.62 141.823 1575.59 145.859C1571.55 149.896 1566.54 151.914 1560.55 151.914C1557.55 151.914 1554.75 151.393 1552.15 150.352C1549.67 149.18 1547.53 147.682 1545.7 145.859C1543.88 143.906 1542.38 141.693 1541.21 139.219C1540.17 136.615 1539.65 133.815 1539.65 130.82Z" fill="#C4AB69"/>
<path d="M101.562 507.109C86.1979 507.109 72.3307 507.826 59.9609 509.258C47.5911 510.56 36.9141 511.992 27.9297 513.555C17.513 515.508 8.20312 517.656 0 520L5.66406 488.359C7.22656 488.49 9.57031 488.62 12.6953 488.75C15.8203 488.88 19.2708 489.01 23.0469 489.141C26.9531 489.271 30.9896 489.401 35.1562 489.531C39.4531 489.531 43.4896 489.596 47.2656 489.727C51.0417 489.727 54.362 489.792 57.2266 489.922C60.2214 489.922 62.3698 489.922 63.6719 489.922H175.195C176.497 489.922 178.581 489.922 181.445 489.922C184.44 489.792 187.826 489.727 191.602 489.727C195.378 489.596 199.349 489.531 203.516 489.531C207.812 489.401 211.849 489.271 215.625 489.141C219.531 489.01 223.047 488.88 226.172 488.75C229.297 488.62 231.641 488.49 233.203 488.359L238.867 520C230.534 517.656 221.159 515.508 210.742 513.555C201.758 511.992 191.081 510.56 178.711 509.258C166.341 507.826 152.474 507.109 137.109 507.109V693.633C137.109 704.701 137.24 714.401 137.5 722.734C137.891 730.938 138.281 738.034 138.672 744.023C139.193 750.013 139.779 755.026 140.43 759.062C141.211 763.099 141.992 766.484 142.773 769.219V770H96.0938V769.219C96.875 766.484 97.5911 763.099 98.2422 759.062C98.8932 755.026 99.4792 750.013 100 744.023C100.521 738.034 100.911 730.938 101.172 722.734C101.432 714.401 101.562 704.701 101.562 693.633V507.109ZM403.516 638.359C403.516 621.172 400.065 608.542 393.164 600.469C386.263 592.396 377.018 588.359 365.43 588.359C361.133 588.359 356.315 589.271 350.977 591.094C345.768 592.786 340.365 595.13 334.766 598.125C329.297 601.12 323.828 604.635 318.359 608.672C312.891 612.578 307.812 616.745 303.125 621.172V693.633C303.125 704.701 303.255 714.401 303.516 722.734C303.776 730.938 304.167 738.034 304.688 744.023C305.208 750.013 305.794 755.026 306.445 759.062C307.096 763.099 307.812 766.484 308.594 769.219V770H263.477V769.219C264.258 766.484 264.974 763.099 265.625 759.062C266.406 755.026 266.992 750.013 267.383 744.023C267.904 738.034 268.294 730.938 268.555 722.734C268.945 714.401 269.141 704.701 269.141 693.633V554.375C269.141 543.307 268.945 533.672 268.555 525.469C268.294 517.135 267.904 509.974 267.383 503.984C266.992 497.995 266.406 492.982 265.625 488.945C264.974 484.909 264.258 481.523 263.477 478.789V478.008H308.594V478.789C307.812 481.523 307.096 484.909 306.445 488.945C305.794 492.982 305.208 497.995 304.688 503.984C304.167 509.974 303.776 517.135 303.516 525.469C303.255 533.672 303.125 543.307 303.125 554.375V604.375C308.333 599.688 314.062 595.065 320.312 590.508C326.693 585.951 333.268 581.849 340.039 578.203C346.81 574.557 353.711 571.628 360.742 569.414C367.773 567.201 374.674 566.094 381.445 566.094C391.602 566.094 400.195 567.852 407.227 571.367C414.388 574.883 420.182 579.505 424.609 585.234C429.167 590.964 432.422 597.539 434.375 604.961C436.458 612.253 437.5 619.674 437.5 627.227V693.633C437.5 704.701 437.63 714.401 437.891 722.734C438.151 730.938 438.542 738.034 439.062 744.023C439.583 750.013 440.169 755.026 440.82 759.062C441.471 763.099 442.188 766.484 442.969 769.219V770H397.852V769.219C398.633 766.484 399.349 763.099 400 759.062C400.781 755.026 401.367 750.013 401.758 744.023C402.279 738.034 402.669 730.938 402.93 722.734C403.32 714.401 403.516 704.701 403.516 693.633V638.359ZM583.984 773.516C569.531 773.516 555.99 771.237 543.359 766.68C530.729 762.122 519.727 755.482 510.352 746.758C500.977 737.904 493.555 727.031 488.086 714.141C482.747 701.12 480.078 686.276 480.078 669.609C480.078 654.896 482.552 641.289 487.5 628.789C492.448 616.159 499.284 605.221 508.008 595.977C516.732 586.732 526.888 579.505 538.477 574.297C550.195 569.089 562.826 566.484 576.367 566.484C589.779 566.484 602.214 568.828 613.672 573.516C625.13 578.073 635.026 584.779 643.359 593.633C651.823 602.357 658.464 613.229 663.281 626.25C668.229 639.141 670.898 653.854 671.289 670.391C656.576 670.13 641.862 669.935 627.148 669.805C612.435 669.674 597.135 669.609 581.25 669.609C569.922 669.609 558.854 669.674 548.047 669.805C537.37 669.935 527.734 670.13 519.141 670.391C519.922 683.932 522.005 696.172 525.391 707.109C528.906 718.047 533.659 727.422 539.648 735.234C545.768 742.917 553.125 748.841 561.719 753.008C570.443 757.174 580.273 759.258 591.211 759.258C598.763 759.258 605.859 758.411 612.5 756.719C619.271 754.896 625.391 752.422 630.859 749.297C636.328 746.172 641.211 742.526 645.508 738.359C649.805 734.062 653.451 729.44 656.445 724.492L658.789 725.664L644.336 760.43C637.305 764.076 628.906 767.201 619.141 769.805C609.375 772.279 597.656 773.516 583.984 773.516ZM558.008 654.375C571.029 654.375 584.049 654.375 597.07 654.375C610.221 654.245 622.135 653.984 632.812 653.594C631.641 642.266 629.427 632.109 626.172 623.125C622.917 614.141 618.75 606.523 613.672 600.273C608.594 594.023 602.604 589.206 595.703 585.82C588.802 582.435 581.185 580.742 572.852 580.742C565.299 580.742 558.333 582.435 551.953 585.82C545.703 589.076 540.234 593.828 535.547 600.078C530.859 606.328 527.083 614.01 524.219 623.125C521.354 632.109 519.661 642.396 519.141 653.984C525 654.245 531.185 654.375 537.695 654.375C544.206 654.375 550.977 654.375 558.008 654.375ZM713.281 646.367C713.281 635.299 713.086 625.664 712.695 617.461C712.435 609.128 712.044 601.966 711.523 595.977C711.133 589.987 710.547 584.974 709.766 580.938C709.115 576.901 708.398 573.516 707.617 570.781V570H752.734V570.781C751.693 573.776 750.781 577.422 750 581.719C749.349 586.016 748.828 591.549 748.438 598.32C753.255 594.284 758.268 590.312 763.477 586.406C768.685 582.5 774.023 579.049 779.492 576.055C784.961 573.06 790.495 570.651 796.094 568.828C801.823 567.005 807.552 566.094 813.281 566.094C816.797 566.094 819.857 566.289 822.461 566.68C825.065 566.94 827.409 567.396 829.492 568.047C831.576 568.568 833.464 569.219 835.156 570C836.849 570.651 838.477 571.302 840.039 571.953L830.469 609.258L827.148 608.477C825.586 602.747 822.656 598.19 818.359 594.805C814.062 591.289 808.203 589.531 800.781 589.531C796.745 589.531 792.513 590.247 788.086 591.68C783.659 593.112 779.167 595.13 774.609 597.734C770.052 600.208 765.495 603.138 760.938 606.523C756.38 609.779 751.953 613.229 747.656 616.875C747.396 620.651 747.266 624.753 747.266 629.18C747.266 633.607 747.266 638.294 747.266 643.242V693.633C747.266 704.701 747.396 714.401 747.656 722.734C747.917 730.938 748.307 738.034 748.828 744.023C749.349 750.013 749.935 755.026 750.586 759.062C751.237 763.099 751.953 766.484 752.734 769.219V770H707.617V769.219C708.398 766.484 709.115 763.099 709.766 759.062C710.547 755.026 711.133 750.013 711.523 744.023C712.044 738.034 712.435 730.938 712.695 722.734C713.086 714.401 713.281 704.701 713.281 693.633V646.367ZM846.484 712.383C846.484 702.096 848.568 693.177 852.734 685.625C857.031 678.073 862.695 671.628 869.727 666.289C876.758 660.951 884.766 656.654 893.75 653.398C902.734 650.013 912.044 647.409 921.68 645.586C931.315 643.633 940.82 642.331 950.195 641.68C959.57 640.898 968.164 640.443 975.977 640.312V630.352C975.977 621.758 974.87 614.336 972.656 608.086C970.443 601.836 967.318 596.693 963.281 592.656C959.245 588.49 954.362 585.43 948.633 583.477C943.034 581.393 936.849 580.352 930.078 580.352C925.391 580.352 920.768 580.742 916.211 581.523C911.654 582.305 906.901 583.607 901.953 585.43C897.135 587.253 891.992 589.727 886.523 592.852C881.185 595.977 875.391 599.948 869.141 604.766L867.188 603.594L880.469 576.055C884.766 574.102 888.997 572.539 893.164 571.367C897.331 570.065 901.562 569.023 905.859 568.242C910.156 567.461 914.518 566.94 918.945 566.68C923.503 566.289 928.255 566.094 933.203 566.094C946.875 566.094 958.529 567.786 968.164 571.172C977.93 574.427 985.872 578.984 991.992 584.844C998.242 590.573 1002.8 597.344 1005.66 605.156C1008.53 612.839 1009.96 621.107 1009.96 629.961V693.633C1009.96 704.701 1010.09 714.401 1010.35 722.734C1010.74 730.938 1011.13 738.034 1011.52 744.023C1012.04 750.013 1012.63 755.026 1013.28 759.062C1014.06 763.099 1014.84 766.484 1015.62 769.219V770H972.461V769.219C973.112 767.135 973.568 764.792 973.828 762.188C974.219 759.583 974.544 756.458 974.805 752.812C972.07 755.156 968.815 757.565 965.039 760.039C961.393 762.513 957.161 764.792 952.344 766.875C947.656 768.828 942.383 770.391 936.523 771.562C930.794 772.865 924.479 773.516 917.578 773.516C894.922 773.516 877.409 768.242 865.039 757.695C852.669 747.018 846.484 731.914 846.484 712.383ZM975.977 655.547C964.128 655.677 952.734 656.393 941.797 657.695C930.859 658.867 921.159 661.406 912.695 665.312C904.362 669.219 897.656 674.818 892.578 682.109C887.63 689.271 885.156 698.841 885.156 710.82C885.156 726.185 888.997 737.904 896.68 745.977C904.362 754.049 914.974 758.086 928.516 758.086C934.766 758.086 940.43 757.24 945.508 755.547C950.716 753.724 955.273 751.51 959.18 748.906C963.216 746.172 966.602 743.242 969.336 740.117C972.07 736.862 974.154 733.737 975.586 730.742C975.846 725.794 975.977 720.326 975.977 714.336C975.977 708.216 975.977 701.315 975.977 693.633V655.547ZM1069.14 642.461C1069.14 631.393 1068.95 621.758 1068.55 613.555C1068.29 605.221 1067.9 598.06 1067.38 592.07C1066.99 586.081 1066.41 581.068 1065.62 577.031C1064.97 572.995 1064.26 569.609 1063.48 566.875V566.094H1108.59V566.875C1107.94 568.828 1107.36 571.042 1106.84 573.516C1106.32 575.99 1105.86 578.789 1105.47 581.914C1113.15 577.487 1121.61 573.776 1130.86 570.781C1140.23 567.656 1150.59 566.094 1161.91 566.094C1176.37 566.094 1189.52 568.568 1201.37 573.516C1213.35 578.333 1223.57 585.299 1232.03 594.414C1240.62 603.529 1247.27 614.531 1251.95 627.422C1256.64 640.312 1258.98 654.766 1258.98 670.781C1258.98 684.193 1256.64 697.083 1251.95 709.453C1247.4 721.823 1240.62 732.76 1231.64 742.266C1222.79 751.771 1211.85 759.388 1198.83 765.117C1185.81 770.716 1170.83 773.516 1153.91 773.516C1143.75 773.516 1134.51 772.734 1126.17 771.172C1117.84 769.609 1110.16 767.591 1103.12 765.117V793.633C1103.12 804.701 1103.26 814.336 1103.52 822.539C1103.78 830.872 1104.17 838.034 1104.69 844.023C1105.21 850.013 1105.79 855.026 1106.45 859.062C1107.1 863.099 1107.81 866.484 1108.59 869.219V870H1063.48V869.219C1064.26 866.484 1064.97 863.099 1065.62 859.062C1066.41 855.026 1066.99 850.013 1067.38 844.023C1067.9 838.034 1068.29 830.872 1068.55 822.539C1068.95 814.336 1069.14 804.701 1069.14 793.633V642.461ZM1155.08 580.742C1150.65 580.742 1146.09 581.328 1141.41 582.5C1136.85 583.542 1132.29 585.104 1127.73 587.188C1123.31 589.141 1119.01 591.68 1114.84 594.805C1110.81 597.799 1107.16 601.25 1103.91 605.156C1103.65 610.104 1103.45 615.703 1103.32 621.953C1103.19 628.203 1103.12 635.039 1103.12 642.461V744.805C1105.73 746.758 1108.66 748.581 1111.91 750.273C1115.17 751.966 1118.82 753.529 1122.85 754.961C1127.02 756.263 1131.64 757.305 1136.72 758.086C1141.93 758.867 1147.66 759.258 1153.91 759.258C1164.06 759.258 1173.24 757.435 1181.45 753.789C1189.65 750.143 1196.55 744.87 1202.15 737.969C1207.88 731.068 1212.24 722.669 1215.23 712.773C1218.36 702.878 1219.92 691.68 1219.92 679.18C1219.92 665.117 1218.75 652.096 1216.41 640.117C1214.06 628.008 1210.29 617.591 1205.08 608.867C1200 600.013 1193.36 593.112 1185.16 588.164C1176.95 583.216 1166.93 580.742 1155.08 580.742ZM1365.43 767.656L1296.68 617.266C1294.21 611.536 1291.54 606.068 1288.67 600.859C1285.81 595.521 1283.07 590.768 1280.47 586.602C1277.99 582.435 1275.78 578.984 1273.83 576.25C1271.88 573.385 1270.57 571.562 1269.92 570.781V570H1321.09V570.781C1320.83 571.432 1320.64 572.409 1320.51 573.711C1320.38 575.013 1320.31 576.185 1320.31 577.227C1320.31 581.263 1320.9 585.755 1322.07 590.703C1323.37 595.521 1325.72 601.576 1329.1 608.867L1383.01 726.055L1432.23 610.43C1434.31 605.612 1436.39 600.339 1438.48 594.609C1440.69 588.88 1441.8 583.086 1441.8 577.227C1441.8 575.534 1441.67 574.167 1441.41 573.125C1441.15 571.953 1440.89 571.172 1440.62 570.781V570H1475.78V570.781C1473.44 573.255 1470.44 577.682 1466.8 584.062C1463.28 590.312 1459.51 598.19 1455.47 607.695L1362.3 829.57C1360.22 834.388 1358.07 839.661 1355.86 845.391C1353.78 851.12 1352.73 856.914 1352.73 862.773C1352.73 864.466 1352.86 865.833 1353.12 866.875C1353.39 868.047 1353.65 868.828 1353.91 869.219V870H1317.38V869.219C1319.86 866.745 1322.85 862.383 1326.37 856.133C1330.01 850.013 1333.85 842.266 1337.89 832.891L1365.43 767.656Z" fill="#C4AB69"/>
<defs>
<linearGradient id="paint0_linear_202_103" x1="2205.22" y1="-172.857" x2="1725.77" y2="794.101" gradientUnits="userSpaceOnUse">
<stop offset="1" stop-color="#C4AB69"/>
</linearGradient>
<linearGradient id="paint1_linear_202_103" x1="2224.14" y1="-163.487" x2="1744.69" y2="803.473" gradientUnits="userSpaceOnUse">
<stop stop-color="#C4AB69"/>
</linearGradient>
<linearGradient id="paint2_linear_202_103" x1="2304.56" y1="-123.596" x2="1825.11" y2="843.362" gradientUnits="userSpaceOnUse">
<stop stop-color="#C4AB69"/>
</linearGradient>
<linearGradient id="paint3_linear_202_103" x1="2379.95" y1="-86.2219" x2="1900.5" y2="880.737" gradientUnits="userSpaceOnUse">
<stop stop-color="#C4AB69"/>
</linearGradient>
<linearGradient id="paint4_linear_202_103" x1="2360.53" y1="-95.8551" x2="1881.08" y2="871.099" gradientUnits="userSpaceOnUse">
<stop stop-color="#C4AB69"/>
</linearGradient>
<linearGradient id="paint5_linear_202_103" x1="2094.69" y1="-227.653" x2="1615.24" y2="739.306" gradientUnits="userSpaceOnUse">
<stop offset="1" stop-color="#C4AB69"/>
</linearGradient>
<linearGradient id="paint6_linear_202_103" x1="2093.49" y1="-228.259" x2="1614.04" y2="738.7" gradientUnits="userSpaceOnUse">
<stop offset="1" stop-color="#C4AB69"/>
</linearGradient>
<linearGradient id="paint7_linear_202_103" x1="2160.84" y1="-194.869" x2="1681.39" y2="772.089" gradientUnits="userSpaceOnUse">
<stop offset="1" stop-color="#C4AB69"/>
</linearGradient>
<linearGradient id="paint8_linear_202_103" x1="2175.95" y1="-187.356" x2="1696.5" y2="779.601" gradientUnits="userSpaceOnUse">
<stop offset="1" stop-color="#C4AB69"/>
</linearGradient>
<linearGradient id="paint9_linear_202_103" x1="2132.66" y1="-208.837" x2="1653.21" y2="758.122" gradientUnits="userSpaceOnUse">
<stop stop-color="#C4AB69"/>
</linearGradient>
<linearGradient id="paint10_linear_202_103" x1="2180.35" y1="-185.194" x2="1700.9" y2="781.767" gradientUnits="userSpaceOnUse">
<stop stop-color="#C4AB69"/>
</linearGradient>
<linearGradient id="paint11_linear_202_103" x1="2137.94" y1="-206.225" x2="1658.49" y2="760.735" gradientUnits="userSpaceOnUse">
<stop offset="1" stop-color="#C4AB69"/>
</linearGradient>
<linearGradient id="paint12_linear_202_103" x1="2135.2" y1="-207.579" x2="1655.75" y2="759.377" gradientUnits="userSpaceOnUse">
<stop offset="1" stop-color="#C4AB69"/>
</linearGradient>
<linearGradient id="paint13_linear_202_103" x1="2257.22" y1="-147.077" x2="1777.78" y2="819.88" gradientUnits="userSpaceOnUse">
<stop offset="1" stop-color="#C4AB69"/>
</linearGradient>
<linearGradient id="paint14_linear_202_103" x1="2335.44" y1="-108.283" x2="1856" y2="858.673" gradientUnits="userSpaceOnUse">
<stop offset="1" stop-color="#C4AB69"/>
</linearGradient>
<linearGradient id="paint15_linear_202_103" x1="2433.8" y1="-59.5226" x2="1954.35" y2="907.436" gradientUnits="userSpaceOnUse">
<stop offset="1" stop-color="#C4AB69"/>
</linearGradient>
<linearGradient id="paint16_linear_202_103" x1="2282.86" y1="-134.36" x2="1803.41" y2="832.599" gradientUnits="userSpaceOnUse">
<stop stop-color="#C4AB69"/>
<stop stop-color="#C4AB69"/>
<stop stop-color="#C4AB69"/>
<stop stop-color="#C4AB69"/>
<stop stop-color="#C4AB69"/>
<stop offset="0.0001" stop-color="#C4AB69"/>
</linearGradient>
<linearGradient id="paint17_linear_202_103" x1="2226.67" y1="-162.224" x2="1747.22" y2="804.736" gradientUnits="userSpaceOnUse">
<stop offset="1" stop-color="#C4AB69"/>
</linearGradient>
<linearGradient id="paint18_linear_202_103" x1="2161.27" y1="-194.65" x2="1681.82" y2="772.309" gradientUnits="userSpaceOnUse">
<stop stop-color="#C4AB69"/>
</linearGradient>
<linearGradient id="paint19_linear_202_103" x1="2271.48" y1="-140" x2="1792.03" y2="826.959" gradientUnits="userSpaceOnUse">
<stop stop-color="#C4AB69"/>
</linearGradient>
</defs>
</svg>
